<mxfile><diagram id="I36Nwn4ZkwixD2RPHRcz" name="第 1 页"><mxGraphModel dx="635" dy="680" grid="1" gridSize="10" guides="1" tooltips="1" connect="1" arrows="1" fold="1" page="1" pageScale="1" pageWidth="450" pageHeight="800" math="0" shadow="0"><root><mxCell id="0"/><mxCell id="1" parent="0"/><mxCell id="55" style="edgeStyle=none;html=1;exitX=0;exitY=1;exitDx=0;exitDy=0;entryX=0.84;entryY=0.28;entryDx=0;entryDy=0;entryPerimeter=0;endArrow=classic;endFill=1;startArrow=classic;startFill=1;" edge="1" parent="1" source="14" target="44"><mxGeometry relative="1" as="geometry"/></mxCell><mxCell id="14" value="" style="shape=image;verticalLabelPosition=bottom;labelBackgroundColor=#ffffff;verticalAlign=top;aspect=fixed;imageAspect=0;image=data:image/png,iVBORw0KGgoAAAANSUhEUgAAAEoAAABMCAYAAADKiSFsAAAAAXNSR0IArs4c6QAAAIRlWElmTU0AKgAAAAgABQESAAMAAAABAAEAAAEaAAUAAAABAAAASgEbAAUAAAABAAAAUgEoAAMAAAABAAIAAIdpAAQAAAABAAAAWgAAAAAAAACQAAAAAQAAAJAAAAABAAOgAQADAAAAAQABAACgAgAEAAAAAQAAAEqgAwAEAAAAAQAAAEwAAAAAo7WRfQAAAAlwSFlzAAAWJQAAFiUBSVIk8AAADmhJREFUeAHtWnuMXFUZ/869d2Z2d/bR3c4+u7ulZVu3L0pLS1JUfCRYiEEbYiuIEDFGgmKwGoJgSPYflYA8xFdSaVQMaqxJRRH/QAKJ1SqFNiJEqECh2+1jt/tsd3Z35t57/H3nzpm5c3deu+3amtyTvXPO+c73fed8v/ud7zzuEoUpRCBEIEQgRCBEIEQgRCBEIEQgRCBEIEQgRCBEIESgFAKiVOOc2ySJ6976SrR9UXV0Jl7TELHdDVIa62PC7YlKt90kt4FIWFJI25XG+LSw+meIDkvDPUQi9pqoiU5UU31qF91ukyA55/4XUOC8ANUn+6y3T1GTiBlLbJG+zjSsa0k4mwQZ1QI9SMk2c4Et0fYjF4ZX5SZXjgkh9kvp/hHlfTOG2b+mnsb6RJ+7gPZXrPqcgNout5s0vLLNMsyNwhSfghN8AtYvyoFRehwiA54EeAAJvx6gyPuhZy8Z8neWrHr1yfr7hktrWvjWeQO1fbCvVkbsTSaJm2HjDTC0STmO9hjtOGwDu5Wmc93Dg0t5ZFUHqwLQQEHK446kX1gk96xsMA9dSO+aF1A3nbqvNR01dkD4C3guY8fw46AMzvspy5DHnVcxMT0deYAM8eh0avqZ3zc/eCav/X9UYQvmlG4c/mYXIu1OMuiz8JRmxJN8eb+35LfkwAz2qlX46Flo0YZpzd415DrycWnP7Nrb9t3BoOqFrvuGVr6r7We+3ZxOTT6Ad7wDEbZWwIhCuGi7y2vMcWhg/Dm3av0SDfgbJSF3WTPy4T3t3xnKSS98CTZXnlKpyW+5Lt2Itb3WhSc5CEouHs79D9Pm+vh1+XXqsurPlY2OQ5+fiZpf3i77aisf+blzVgzU1sH77nFcebNLsobX6/P1ONClQOI8+DDgmb58PAlXup+bGrG3Y1tS8fih5pySVYn0tqH7r5iW6XsdKWoQK4qK2GmHBv89SKkz0xRvqaOmZU1kWqVtYW32jEMjR4ZpemyK4ok4NXQtokgMax33hP6y09HrG4ui6BLk3PbKhP0aOA4w20Ins1wHfX19xjubUr/C4N7HgZvfMBvgf1iHbTv0zvP/odG3hmlqOElnT0xQasqmuq5Gha3m98urMuQGXu6nwVdP0NTpSRo/No59qKCqpjiCuAeyX8YDjwRona5Ng2vuuerlNx/6a4rHsJCp9OtGzy/dmb7ecWmzgw0N/hB7Zj88ZcYHJpShEswMqJNyaBJgnR08402fjBw7hdbB5VTSptNvDJKWk2mXRuFdU2Mziq9Qnx5NmIiVN0y65tqFBEjrLgtUKu3eCtOj/mBdqJwGMLDbSzxXkPjoYgO4Qvyalkrzsc6XUHFtAO06JeUcrCrSEGuA8OYt/TurfRoWpFgSqGsG716RctzLsOKYehWD3bNXNLhIdXMtRWqi3iCBGE+fSF01xRrixCuWXr2C8mZ1VMl6u3eIQ451GVWRXD/cp79frQ/5jO1+SFqx1gVBx6e0ZDBP2uJKDLFOYBPDbx3vEL8Irsi45FG5LMmMR6l5QycNv36SXAT1SH0VLV7TSjKCsAvPyvHDYq5k/EhGDEps7KSR10+QnUwruUW9LUofTzHFjA6VPG+muJTJ1JwWYoMlaTEa3sWzYKkkUIiYq/DSarAcK1BwPQKQBLmMlEperoyAAbElDbSkrY7saZtM9i4o4Cmik2efx63CMRq4FsVK13r1pVKmXGFEcHo0MfUYBU+9ynUfBkYSlRZFhUWmVGvR0ha3YekTQ0OHf51ITPYJjvPnP5UEynapg+OTGrB2I65oA2aNB2PkyVxjwYsyhjI6OnH05pTV5VWVQnbPmKG8L6cfngSRuBGjNtFIzUYdNYo4LTLiVCcwrSnCyoweo+2WxcJY89Xx8eNfm5g45TjOgGmaR+vr68/brUNJoOBJcQwV7xepKDja2CJ5IblCNJ+4Oj8C4A6jkXqtJdRrLqHlRit1mk249EIsJHhS5gUwkIiH21Df5sJ7AdIJqDqM/NXR0dEDhmHsB2Bv43ajTK++ARQolgYK75ODsHaEAvLnncRxkD1nS2QlXWldSqusTmoWdeo9eZGKd/C+ackjyJ9s7QClHSvu1WgZBHgvjY6P/2loaOjp5ubm4/MdcEmgZhx3Ap3aQiIonI+k7qWgqAjyBm4815pddH1sI22yllGjgdUPruLbeGhHyo7G7yZeDPT0s6Oh3grArkd/mzEVPzwyMvKDxsbG/WxTVkGFhTIAyH7YNIPOqrQ+PbCM52uyyrmtED3LVAQglouJCG2xVtBNVVdhmrWoYM1uxF6k+2Q9qswQlNCl+bQcuNsA2zbY0Yvp+ADyPXMFqyRQtitwlpJJdNTA41Lj41EgaUD0YDwq6EzQjSjqdh9J0fx1XsG2RFfK22MfFW1Gg/IiDYSWz+rHIKReSYOAZepBmcyQouhzHfQ8ODY2xhu+n2udleQlN5wJS/4dVo+pIwO0+Y8TXPbXsY3wjhwZvmC7rmsZXXex3VhldtKdVdeIDmORB1Jw5AxAJsEbdDHnVZn2vLYclypxGx5EEdmJ5/FTp05tDbCUrJYE6i+XPHYCy/zfENBt78jBx5H8J7vjxkBs1cZnwuDDMjmaX6aWqmhnzVZqQcAulgwAgRhDWMEKs0C3TphSio95uVwoAaj6SDS6942jRzsKtReilZx6LJCS9k8MaX4axVkXZd7wcoP0OgjWPSpPQh62v5VXr1vj76cesxUlr11zc8686VSKDh48SIgt1L10KfX29pKZAYzb86AAMJhWdPAQPhOiraenhzo7O1Hykp8f4Fcnamp+hhb2LP+wPObAb1mg3l35w38sf/OuPzhC3qTmVkDBfKscolvNBtpetTm7qgVHizdP+/bto4GBAeUd4+PjlE6naf3ll/M0Ul37ZRjUZ599Flc+3qI2PjGBPZZBHUuWzOJ3cVUKj/sAVsKPNzU1PVPOjiK+nC8mHeteXOwf5WVaTyH/9NE0zovR/TxcTiOo3VK9RR1HVODOGO4vs+EwJDuFsImkkeFhL5gzf+A5PTSkgOQpx8/M9DSNwRODfKrOJkoZxT7rNoBe1mEqAurI6offQ8d34+Q/wndPHLh1MJ5vjkhCW6Pr1JTLGsKrmTYeZZ5idXW52MVxiutqumk+X15bW0uxquxOhqLRKMXj8ZxOH6+6jiDiW5H1w8PDK/JdY3atIqBY7Gjv47/Bdcmj8KwR7R3sPcFHe5VHd2e18wGbn2VmgjpM/qjsnzz5A2Rg1q5bR21tbbR48WLq7u6mSxF3ikngqEJr16yhlpYW9SxbvpxaIaunab52dA0CQK/Dy98cbAvWy7qcX6BzuvmR/qrBKFbZL2JVxx1KsSH7pWbzsFiv1Qav9M4eszly8u3t7dTQ0EDJZFJ5UzQWU+AGZdjLeH+1avXqbEyqg4cZADvIq7Vjr8Bt1bCjR9OK5XMC6pVNfcnu9+54dGbSGMX1yR0wc0VlYOV3zwNPYDvAK50HVX67v8beUFVdTdV4WI7rhQzP0tBeB8/SKUvXBF/ObQDYQljh+6ySqeKpp7UcXfrj0bqI2I2N4gO4Rz/sbSC9IM/TTU+9YK6nqJ62vDeaSypl8Fz0BHmhlzehZXEoyxBUzPW3Vnx/wrBoH4wHUAAHbsFxOJjjPkvRdK7bmXfEmYIMogPkiz7MeC7tpWRzbbw+TRay00+b09TzCyZtux5zAC4Lz5jH6347fdo7F5YTZoPY+zgvlMq1a5niOmakEMc0W7F83kA5aRfbf4ElKGMABoLjKjY9tAf0KJa2D6Klhz8WqOSzkykHU/34imJAnK+XvUb+5TYMXAGTkVRQKrpS5P0Ua6uEnlWDftBnEjHqX1lakcK8gOrE56HhkeRKTKlmZQUbK+ipKsO9fzxt4O0owyNVtW6rmBbYRpsrsCloxyLXgFBsYX9kj7hnhwZSIx9rjTRcjgmWlxR4oDBdAQT9HpQeG9P8MszPyU+H8Wproui+smLUPywnxJCbSu3XpGL5vIA6PXKmzbaNLSKGK9mU809TOF+f3rD7+cDn2vQ00RF0zE9eSmdqS08/9JxtGM/xsUQnz+QM1CDqum7nvBAtSNfgKXoGSC7nJXzOsCxrb3NLSzKPXqAyr2AupJXCmvqaSLnfSFvmR6Y37n6+gO6ypEWJxJ/tdLrs2yyraB4M7HF4Trq2vasScT2lK+FdEJ7jx49fjU3hb+EBzefUAQzPxssKFKG/FPr9UltLy+4K2HHgusAJB90DMPARDGNcGcrTxPfwFFLTyJdzu5+u+LGVCNJ03Z8rXoCEheSXlYLEEF1woLq6uqZwPPkpxvIkVrtxXvE4UGdzLmfqnOs2Rcu0KRrKvKJkeTJtfr5M2zRuAZ82pbyTRSpNF3zq6YHizqlLWNZd2IXy/4aq/yVgT9CJY4q/runBnA3KSeValTzRGCh7Xcu6vyuRGMi1li9dNEDxUHGP3Yqd/o0A6jYccNfCOLz4QmaXNyzIAV1ncWP+o6hhPYbveyeC7eXqFxVQPNiTJ0/GpWleKW17BwD7JAzkj5kVeVMxY9mbkI4gznwGVzb4YDL3NK991Ny7qVwChkwCmBePHTt22IzFnpaOcw186lqYupoNVqBpdQFvU4CAh2Hhfw7hDwx89aK8UogEaHUog23un9cvOo/SGHAOowxMxwTuwDtg9CWuQVcgmq/CoJfC23AqkLi+VLhM4m58BNe6x3Er8Qam7yHwnwHfdQBqB3ga+e4ciWPgEx0dHWU3mMzsTxc1UP6BvvDCC1b3+u646Zg10pYxy7b4HskgXOThJtFNuknHSBn8VXvqbHf35OCLL7r4YtPoCnEVzpI7AeLVAPepqGXdjRvQk37dlZT/b4CqxJhCPADORNxrwkboVunIBI4s35sPUIV0h7QQgRCBEIEQgRCBEIEQgRCBEIEQgRCBEIEQgRCBEIEcAv8FCKu4lBeQh9EAAAAASUVORK5CYII=;" parent="1" vertex="1"><mxGeometry x="350" y="200" width="74" height="76" as="geometry"/></mxCell><mxCell id="49" style="edgeStyle=none;html=1;exitX=0.5;exitY=1;exitDx=0;exitDy=0;entryX=0.14;entryY=0.65;entryDx=0;entryDy=0;entryPerimeter=0;endArrow=classic;endFill=1;startArrow=classic;startFill=1;" edge="1" parent="1" source="15" target="44"><mxGeometry relative="1" as="geometry"/></mxCell><mxCell id="15" value="" style="shape=image;verticalLabelPosition=bottom;labelBackgroundColor=#ffffff;verticalAlign=top;aspect=fixed;imageAspect=0;image=data:image/png,iVBORw0KGgoAAAANSUhEUgAAAEoAAABMCAYAAADKiSFsAAAAAXNSR0IArs4c6QAAAIRlWElmTU0AKgAAAAgABQESAAMAAAABAAEAAAEaAAUAAAABAAAASgEbAAUAAAABAAAAUgEoAAMAAAABAAIAAIdpAAQAAAABAAAAWgAAAAAAAACQAAAAAQAAAJAAAAABAAOgAQADAAAAAQABAACgAgAEAAAAAQAAAEqgAwAEAAAAAQAAAEwAAAAAo7WRfQAAAAlwSFlzAAAWJQAAFiUBSVIk8AAADW1JREFUeAHtWgtwVNUZ/s7d3TwIeSegPERBaYEgVZCotY7Ux9TajmWmaNXWVjuBqqMO9KEG6lwsAk6pohUpIAVxOm2hrVWrVoKCUytqAbFAgigShQiBZPMg5Hn3nn7n3t3sBja72d1LyEzvn5y9r3PO/5/v/P9//vMAXHIRcBFwEXARcBFwEXARcBFwEXARcBFwEXAR+D9FQPRLu2dKH4YdHwNNfgXS/DJ5jgBEAQTSAbMTpqiHBwch5Ufweneiet9+rJzS1S+y9ZGJ80DNkB5MRQZO1A2H5rkO0G6gLJcQmEIIjbeS/0wnk1CiMMmA+lIPE/+BR/wDAbyOlrbDmDq0HTcJ6+PJRfvj2Tmg7pXpGNpWhEDHFAr+Q6ar2e4cSMUiCjBxW8dywip3nKBVsK518KRvQ05mHe4THXGLO5whdaCUBk3yD0PAewWEeSflm0ZcPDHklBDCJHgm8/FeqRFVTUqlbjHkEZ2sfwvgWQPTeBt7Cg5jQ/9pWAzBYjQ19OnXR7JwIn0yNNzBhk6nmeVG0R5lLk18f4w41BOkRuY9AU1rhTT4TfNS6zLpqwYzXx6f85l3CCHLPRVwJa5s5M8L1LY1aO7cgSVnneDzaafkgdKbi+Axb4Qp76GUk5iURtik/I2ULXzYy7QHmtgDs2svRMan8MojqM5uxkoYtm3RNlds96J+bA46jbOpi+fC1MYRiBICOJ4AjqfCDWJ9wcqtCzUSH/Dbcvh8f0d5Tn3kx9NxnxxQ5cfORrp3Jnv9x2zsyO5G2ACp0WoLNWcTG7KVI9ou6PlKCxKjRY35kFoJAsblCIhrCPbXWEF6D16QB/nuWXbCSuhDjiTGILHciQOlHx8CdP2cQNzBVNgtuOVqJHtZWwsENsPMr4IuqDUpkr7ZC23SOPqmq+nWbifPi7p5Wh2DOr7/Pb8/Bj3XnyK3XosnBtRsmYm8hrnUoruZlC9hxVYV7RT+TzSr1TDy3ydAnb1yTPaDLjOAxqlkxwFD3Mxq+BziL/28fYYubr4jnRNFRm+Ud72/ymu6lULOYoYgSCornavEUzA61wFDDlBQ5T+cJ120Y738Nz5qqmG4cIg+7G7yDclRQA95F6S/moxXO888qA59qlivH8+RahOFOzsiP32PXEKHuhIPDa6jWfTwuBH5nLuVdP6LWhivGT8hYLNZMcHqpmM0w6ugF1Z2v3HoJjxSxatQiFUchcIgCbQRJPVuGcqzj/ULSEpG1RmKXwC/Zac9xzeUI0hCFPM7HbsVk4XeOnLtG1ALmm6BN+Ny2yeQr6CIEhsZBz2e1IjmhOhqJPV1LqZv3MzqbHNXIYTQvgpfA12EsxQfqMfpwKUsRyDSP4u91KRnTveQHLepc4fWwqM9yXyfdOdVYBmYA/2oCmAdo/hAHfd/i0CNZgoyla0MMiugL2WcNABoXm4FNV3NBcMmCHEeRNr1TkoXGyg1j4N2I7UnLYLpQXi1PwD66RndIhj16Vb5LI9nHfMeDucXgwjeDU76qthATWgYToacnshQGGHQN32AsTnbw0INgDtjxw46ccoUDE0EfLwvARpGOCVdbKCEZyJVOjz8CnB5Q1ScyXWhqA3Xpxl0B6/xW8ipMwqWXP+i/A5RbKDA1Uip1DhIkkBp5nuhxwF1lZ6tBCdyxKEzN8Y6JWMcoDCSjNJtZtZUpQmFBZ85xdzRepqylVxN1PhQtRk0x2Ghh1SvsYGyzE7Y/snmX4/iyNElVfYOln9CqFHPz9kDsVJJ+OhPc53iEHLSvdQn08hQhZfUais8OKPr1r0IGX4tuOxiBqotmSHHUWY6dWcoNlBSqLWlUAClOKZxYuoZcM48hIXw3AfN1w6Dnau1jaIz55KQMxQHKDRwlm6QFeMoZXuyCJWHlc9qdYa9s7WUXJo7XHAPyBSoNTuKNlb97di7TnGI46MklzNUSKCIiqXWsTHoLPt54PxetRnekgosox5tood4jNHUGo+37p8TbxJqR8gRig2U5q0iPmHtkRwBNTHVEc4OVnLMxPe5HnUrF2BCuz9qb2cin+eNrnDGoccGSng/pBo1dLfJ3tm9lk6yewzu/nYGbyjMlQw1OXmP+FPySIzM0qyNj5Sliw2UkVlDDruYuK2kiKGCRCnm+7mGPXCI5tZFjVJ7hLYrtdypdVvIUN2RoDM2UPay7gtkb8/MbU3i/Em7mRPO2ANBP+KoSbxFdnU9WBIsetVC+quLL3wdWT2+JfEQGyhVYRvUcgr35IJZ1Ta5wLeh+Xme4MyS1HnsYxsmrs9G3WCJ9USmimsJzUxqF1r5qTQ6+FI6ipSdulLS+DS/6QcME9ZFrEm1cQ74Z3gD8zCvSJlnvxPXNb3cV57KRboHCUjbu114oKwFEwhSCV36GJrjJL6fQMC8vF9FwBbsvga1yQraN6D0LzgxzvgrT6d8Qx0ZsEkc5WT9KaRpz+ChvLDDT1aSBMpRi4rok66n3pQRiFFMv+F4vFpMgrW9Xvoqctp9uJDx1LU0v+8y5RHAxe3ZeO6TS9GcAKvurH0DSmXX/SWcGrxCF3mOZf12FZ/z8jjS5Vo8WMAJ6ekjatBgjmujqS3KjKZRW67gtZggLaV7eFJcCZ5t6EkKsDYvrjI1zCZYPIaEe2dMQ4W+hMvb/poMLBrR5634vgNFW8MjDbfxsozi5IRFsra1l0F6Vp2OnVq5gotwF2MW+X2T4HBn2touO4v3ah73Kg3wFzSySpoWsTiVJuxBmuew5aemt7ZcsnH/f18eBzN9Gjs8g235CGnGcpTH395KACgKodfTkWv3k8lcalVw+cUSjvtpeJ6myJ3awqRU+9Qm2m9oZj+jiXELn9pjjfjdORv5rpxatlpMQOQ6VHeG0M3kbfC11o0q+nj7lvsNI+82vh/GsqrtKpjm9j/u5W5SNe97pfijXmRRveA4vGnPQgSWk01kD6r9tB9B6xoVmT3Ve7kLQ1lHGXkN4TXcqfZdJc1wWzyQlAzbp6CravvOoYaRP42Pw5nsqEuqsEFcxsXI76h8sSgxoDj0YW7WEWiZS6i2v2PFIc/OW8ZVIrM9FrOEv3XyrKek445GAh9zqr4/2qeo7wwuu0Aq4MOAq4wKLFPEDaCTCRol5g2qgd60lrhx3icm24Kx/wMR0x21W6v5S9l5XwI6P8Cut3Zjw03BCN8uEfXXKtd0EY2p8UDjRXXn5R3oiOwOq4xakhb4DOO5utFXkriQelTUww7syjp5VvSLeNUkA5RdpzC46aAVWg/0pFSurZDZ7YzY06C1XMCzG4t4vomBKVmoqeHE62oxsXEPHyr5rATzE2iuTPCUinXYQgxn47nY1sjRletIPqN89Lb3n5ZXF69j3jlMoUW4APPtJJBv8qoYR7oAPkahX9WO4ebDZPI9OUJnx0lqpbk+Sqker5IEii3XmrLZ03m2nAzpwFN1qB/B1YVbCOBsPmdb30y1nGWRUnsm8XWredYr1U6mUHOtJvPHqo752jwvb/10xPzLzj3USW2Yzsw0b+wLHMIG8yWM0cqQK9vxhnjejp+sKk/+WcFVztqG6ynTpKCsdA9ChTItvO4jr4X4ZVHVycVOflYiJk4zt/Hc+Og7uD79NBmxp3kkB+YaOvRLWRnPkgehsM8oqPqT4UOE5ROQviXQs4/Kd1DAerM5XtV2LMQ57OGFpqTxAUs7DbyUdS6OCv0kI7UPoZWy3GLKRo3CAaZ32JkVPP64E8iuRh/PciWnUReMSEObVsD2EySlBjQfod1l3do/ChuefpNVNK/j7M2hBFSZqYq/MpmUGUUOJBwU1OEz2cbUzEbVscmHmUedL1bljorLaarKXNXLGdhPw1/JoWUhHx9J82KscQgvypmo4tnQevaKtHeJ68/n3T2s7wK+4gFZHk+Sg7fi4cQPuiUHVFcWD58aDPoiFMU2FyUiVRrvMVXA432FoQqP6GSez5BiDD8Oo58oYrlsAqfOY3rYu9y8VIKbBMhaAThEDD9h+Y97C2DFBgQ4IX6TJric+XTynMOy1xkm3pB34sMuHw7uqCv9tLS44hLWO5X1r+Z1OTWTdSdHES1NoIIF9SOpugvodG/nrgeVQSmHeYI/W5leo+PcCL1gd9Qa1VLN/EpqVD47yashpziA5soA9PFdrMjyUlHLRXnJ88iFgQ4sZaEZ7LN01RiaYytBq+5E+r8ezf7p2wtzH+qCt3UL1MmXFCg5oB7w5yJLm0WxHubI5mH73qEWvMjDElvQtWQ3dD0ivkpBuj4UNcrwPWZ7jArNOahNwUadIGBrPO14MKazDxWKc2WvJkGL85vxqP+PjJsOEiyqk9iNwTn7MMfahEyiwuSLeCTeptevYQ0jmSyMgmqZRZMs5ZFY+ieGEylSckBZZzW5Q7MCf7H4zwodrk9RmmSKr0KNLMPnRGgKi9Okw0QjTzM0a/AIv0zyLnLkSbAK+pNZ3CBVKUHfkiCjmNnpm1QwonyjmuBGkskl4hqv5KDgAKUAlAPcHarC18VDrxKb1CCsBROf91OjnuLR155r6UnytGw6ybIDrlhHGTf7gekEbK+3GGvFo5wPuuQi4CLgIuAi4CLgIuAi4CLgIuAi4CLgIuAi4CKQGgL/AxEIVLnly2RFAAAAAElFTkSuQmCC;" parent="1" vertex="1"><mxGeometry x="150" y="256" width="74" height="76" as="geometry"/></mxCell><mxCell id="51" style="edgeStyle=none;html=1;exitX=0.5;exitY=0;exitDx=0;exitDy=0;entryX=0.87;entryY=0.65;entryDx=0;entryDy=0;entryPerimeter=0;startArrow=classic;startFill=1;" edge="1" parent="1" source="17" target="40"><mxGeometry relative="1" as="geometry"/></mxCell><mxCell id="17" value="" style="shape=image;verticalLabelPosition=bottom;labelBackgroundColor=#ffffff;verticalAlign=top;aspect=fixed;imageAspect=0;image=data:image/png,iVBORw0KGgoAAAANSUhEUgAAAFoAAABaCAYAAAA4qEECAAAAAXNSR0IArs4c6QAAAIRlWElmTU0AKgAAAAgABQESAAMAAAABAAEAAAEaAAUAAAABAAAASgEbAAUAAAABAAAAUgEoAAMAAAABAAIAAIdpAAQAAAABAAAAWgAAAAAAAACQAAAAAQAAAJAAAAABAAOgAQADAAAAAQABAACgAgAEAAAAAQAAAFqgAwAEAAAAAQAAAFoAAAAAW0RqIgAAAAlwSFlzAAAWJQAAFiUBSVIk8AAAESZJREFUeAHtnHmQXEUdx3/93szeu8luEgLZAIlcCiLIjWCMKCCCEEFBVBSPKrW8UP6xLKrUKqo8sRQULLQUBK+isEoULMSjSiRCyMURDBACm2QTyJ1sssfMvNd+fv3mZY9MMjM77y2TqvlV9fR7/fr9uvvbv/71r3/db0Qa1ECggUADgQYCDQQaCDQQaCDQQKCBQAOBBgINBBoITAECZgrKSKQI+y9pkU75inhysVh5UF6TW817ZSQR5lPAJDMFZSRTRIdcIEbeA8jnwjCQw2U58T+SYZ4+Fy/9ImovwT4uXUjyFXB6C2BnAftUwiK7VNpq5z41HA4JoKUZaRY5hzAdgAWwe4jPE18WcndIUN0Dbf+DZg7lGtA8ehyinswj/cOHilTXPdDSKhcivWcD8rRxQFsn3Wcj3SrtdU91C7S1Ypy0Gvks+vmwEkgaQNb0z6hFovlL5KmbpLoFWtZIE5L8XsK5hPYDINZF+kJRi+Sv5K9jql+gtwCuJ98G5NYy+LWQ77syt74tkLoE2v5PZmBpXCUZORaF4JcBOkO+NzMxXmpfmqDHy7w4lY/rDmh0rSeD0oskfwnwKiPNF7Bq3CZz61VX1x3QsoI1n7ACNPLGqoAWOZkuulieLTlxVtZhKeaqK6CdNIdyAtJ8LUBX5x7QFaORDyHZx9WjVNcV0EjzkQjVRQB2EmBXR1H+UwD6XfI0qqfOqG6ARgp9wD0dfC4lZCeJk5p4lwP2aW50TJJJGq/VDdD44uYD9EIaeWJNDbVyCrr9HbJSjqqJT8Iv1wXQSF/GgWNYbpc35w4OgefMwYvotAVulBw895Q9rQugZYm8AYvhnUD0xppbrrrax6628FvpdH7NLJNgUB9AZ2QRkvyOis25ci2PJsaF8FtULutUPX/dgbZPIX0iCwlzkcJkKOIzD2YX2CcxF+uAptTj5SyBJdKNmjiGth/DED/GTYBGTuO+OzGgY2CNbIfnk4yW/2CJrCF5LVL+kpwlO4xJbPzEpR00Tg1oXJwzaeSRTHNHER9NmEdNdGl9GA3vIO7gvoPrHmJ1HCVfFwXTyhC8txIGCXsJA6RtIV5P6KPT+1y8S/rNO10+bpOnmhtnVzgH/BwkppdK99K0OcRzqOosGtQNfNO51jCNa3XeNxNGqVp1USp/uVZMfG7d7vluKrGTOu5wsSG2eEt82UDcT1o/8UbJ0wHniOatiSZW4YDM3JZSC9Loy2xAVamMggIagapOeA0zXfDGLDpicOKYDAckzaO1MqxZMgi7R9/4ncS4pD0E37AmMbo6V6ce3qRwWMQitAFYFLYTENZwD2lFPkQlKW55HGt+7QAD2JHEq9RvddeebCbejAC9Rpqmb6GLNjECKKgyios5YG67Cof6iLyJDLrVr0tkldY5XPdSqVkU3uyAiSoa8dHrasgDyCz9ldFAX/kMgMyM6N4HbD8Gm01vrwXOCjSF2IC4AMhohGBnBHJ+EzEh/yoBwcxv5J4OqJRiRDSOrwM3AhTkjaSppG9w15btBpHV5gzkvgyVd9wMOf15IXxuppDR/HElKnVljq2ISqQC6oCdjTKZL9KCcdB8vEgTC7rs3AhsZqzqiQ5Q0EdeERl6Fs28JIpza0Vy68qzi4UkjqM3VN1RMTffxDxyCNmQ5JyOTwDobYhMt6xjpGpPqhSPgh0XWUms4DrJRFKzgNtxnkg7oQ33hoJuyvn3KylE89A5fjd8NbxVpOcaQH9JZMf9KII7kG4E042ESvmVzJcDi3401zrQYEiVp4pFxi6TG2D3VUIvoTr7W0HOHgG4C2n4R0S6LobFWFI1MFaEqJarWcXVG8us9HU4InbDt0S23caub8WqtRQv1Vc6YX4PlXF7qQyl0iqWTnO6/AiTLQMANwCzWheVU+spIkfchN2xqPQ7YV5smCtKGpvbHhOer7o4IbKhhIObZe/yv0hTe0GaplFGZmzHVliOipeVTbT9J9WArNwrBtpVZZrchqHjUdDn+J1XMdgj6yXsv0fyfSskGGCCGtokdoQJPYdFVRii8jr6xjYcSUaVGJ95trlHTMtsMe1zxeuYL37XCeJNP0m8zvnkKV99W9gjwaZ/yNCyr4nds04CPxDL3jklVEcKciiv8HsHRupt1b08ifLsciyNUD5NQZ8CbF3ZlScHSLuEtgVMUW/5vIQjQRSwzoIRE2E9sfmG1ingHqaeSjnBqKRn2rD0sDS7TxW/92LJHH5ByTqEA2slv/Zeyb/yewn3ruPdvLT25hksHAJR4Col7RXLqlLklzIsPzfnYepVSeVFYgJDc5pssYvl186os/JJHuty+uDkJHYX/bLLjSFLI/0s4GKtMaoBmSVczkgw7EkwxDXAOxlwD1ncoVqihd2o3CuINgfPnlP3L5v8hdcedSBrbIf7xW8KpPmwwuRAFnkZGbgLC+PuyYCsFawaaH3JvE36kezfFKX5E1Ti2IokW1+GnDR5Y48WWWcI+O3oUkDWUNjrYx7TI/uNcYaQ14w0nyzZ+deIP/OsiGnx1w6/Kvn1f5FC3x8l2LYcK2On+K1WmmcUJAP//fmNe338jZYdslQ3cjdI3csKccP4DJXf7deMyl9Fup5gV8SXT/DOxxFX9WkkQjoAVLoLAK1gByMArrwxy0zrbMnMXiCZo690KsM0YcYVKdi+XArrHwDoByTc9QL4IMFtoWS7A8l2VTN7w1CR0YlP5Fe07S7zVnmxWMykopqA1hId2Bn0tepsw1GBhMB2vMGmMOBJfjfSPcwmd9txkp1zESBfJf6MM4tDgzowoQabURWv/EEK/Q+jKragj9mqUZCnA3LnJCRZ/R6CivTkjlpB1rbUDrRqgJV450L5PPwU8OlJ8IXHPgpy0yRfOEX8w6+TzByOfLTNjZ5hEoaDmwD5Mcn978e4O17QoeBUk98GwEhypiOUKheYKip7adW9zEO3sIO5NgmXas1Aa4tZaxi2+GcxUm/m9v0EHc/JLPUyuorka4pZX2YlyVl05+tAp+f3SDjwktPFCnI0YVIRdL/q+qYeQFadXB3pCwOEh/Fe3Mhh4Y1JgKxVSARoZaTkAF/BxKFHBtRFWgt/zDoUMv5AFqOzGCxZlulKFGJxIgWbF0vuuR9KYePf3OTontGabEcgTUx8flvVOkxf2E29H0Mzf1AukyFArpqJq0eJn0SBjvmzgryXLnwfoWtyVWXya5onMv+3SPHZMVsX29x2ya+5W0ZWfR9djD9fO0QJSLLTMOFmFTBKqsRHUQixkEUexYV2mTkJQy5hmpR5V7YOHgcOo4pfBdjRdydlXypmUIfQ9MtZsn8D5NQrO0rB1iWSW3275Dc8iC4eHA8y+lhNOK9pUiCzPEVdWLkxDZC1BekA/QAz9hWcWQ7ZIgjlA8zc+nFPeWp9i8gM5lMFWkGOpTV+k7FsmtioIdhBfNBKqi5ikLMUUu0Y1a0uIw/B6dto53WOZwo/1Var4iqgSj1ZypxtsEb08GFkjZR+32OJqB69no9FqkI9fSXI5ncB8EYsDTyUe15mMnxezPBqybatoTAwClUwqyLdUXmA8GO2N55MS5q1RqkBrcztN2n/Io5oBfIFbq8lMLtNIHX0T7+S8EH8xyynFfSypFYHe6w4pyTYKp6Hri7sIGisARM44F63t0IkX7e2XIwatuolVCdWoD8PM8neKUfd+l/puEQtDq0fjhVZZ4xRd2hilCrQcS3xZV+P6riFbu2J01zcdiYAXxUB3XIsSTVWRyXaAbyzCDIAO7DR5wquVaDxmzigWWa2HP9faT9/JVtnI2EYZuzuNZlw2+JMbv1DP2vv7F5lzrhTnSyJUDo6emLVom3/0VTdYO1cgKq4HpVxCTPFePxHM1Z5pZu3GrJzKnkRcyU8X3Jbz5eBlSJ7+nCLrAnCXc+87BV23IVs19jr46uQOtCYejoUZ1JtZjGK081W3cY6/OvsE54UATO+TundsZJUj5/T9SP4woc22mDHKpxPS9lmXJWTwb41jLy7uq4beTzpSqQONNbpLL6XmknFfbdnOP0yNsNu4W4aSYkKzSg26l5VUIMhtARqQ3dvdBcHuzvc+YwE21cC7jK3srQFXW2bERbqL/rG/qHzutwPRhkld5U+0M3OtIvMiGyvyOybkGJ1h1Ri75VqaPE956vWaw34rDFznHObmRe3H3PfBgl3Pw+wz6G2nyU87XZYnOPD+WnpZOPpT2CNWe1Z+9POj+Z+UarEJNLSBzpwZz9mu8rmNrOldadYdLPXeSRmciUWxsRmsi5WMw8PnR16FYsOc09BZZtKNwPCgRfFcu8WNDpi9oHKtc/cMJ4wX8xfg0C+03P98GPjHyV7lz7QzaiNkNNNkM1twQl0uwwvvYf2s0WVYcbJdDJ5dQI6W1S6ZRUvUlRC8VLZQIc91gIqQIe5xTsnoVpmkJNqJFiPDxCsxmHxXre+DkKsfSjLPkMp93W3DCeukycWnT7QKtHqp9Z2ebgu2wfEy7BhOqjbVz67KVkkMgNIHtnwcagUOlKgETgHODp3H6hq7iZAsA+tQYfZVnO16pt0KX2gPSTausnQYajb/BkfV2YTQIeAxrpBI903jExc0nUPMc89MaOBhzH4yYGh3YiGnsUkqBN16pQq0MX/2piJvdHkAIubA24Gv0Tkd4tiJ7gB4LrRHwHshDiM0kSfaYcUYwVf8ypfSx6dEyPhJ13LcT9jYk2LqdhvqO9Wcs/c+Gdpm/M+d6w3zpF4nCrQGP2qmzmYUb7eTmci7WpqezFKxfcU4H2AqgpW8B3ApCvg+lyB1WsXc60UXyufGPi4LsQZygqs7elqQ73pWekUKV2gM3IE89mMfY2stiFFcFwnIP4GlRMdBo5Rg2EMXCneY7Ltezw2P1MC52l68GHqHHIIA11wR3x1pyU9KgXmwUobm1+vDTtBUT0P9lbNz9KV6Oj0f2W+6PJN4ZQix7/1DIGeaNW/+pn49UB5HuNzRKCrIFTkHBn/cnV36QJtnI5W/VcLqQZm/czHPkbu4/oZwqlcf4C0N3CtvhS1CydH+k2Njez8yTGo7K3UgGZSMnx2rJNhdVtZWm/VowqdrjkGZRW/txL/ySxwnzVwK3/ks7mfAP+V5P0i//F4ItfMbPqoCookWl2HR3CpU0GUUgWLSrNOXhLKlbCCiVBBrrYEBdnybUjAZwtD/AuNxycdWfmdvMqnbGPpebbLWtkE9uUi8l2NQnmEx4Ouk8bmK3ftUYJHPZcyaadIqUk0De4FsK4q665fFTxCeAign8KxuonPMfcgavtJWnE1t4eRs1eeYKeklZMlBfcPj7gH+SsJpLSKsvWLMdXTbM+kQ2kCPZcqqy/0wBRJrz5fTfg7cP4b6VqFKljH/h3bI+Wp2Am7ybmbD5v6gf1ZpPzP8FpI2rsA8Hgn5ft11RjeKhAhgiF0VkqUHtAhnxyzf7K/LJKq6iRaZCzj6t+EJwBnhbRLnznOfQFFUvVU7JxV9kUmzl2AZjmnYThvZOXtcDttX7ljWUcdoP99qvVNjdID2rpvu7ucNGn1R6UXZ7EDYSlpj6EiFsuZfDSJeyOpVhY7azVq5QW6bzGcl1DWucRnArr+kWy0UTUq5ZxfOFSBNkWJjtDDM+9OZz5PrMPzEfTpPzlvrEM+NSp2Xh8F9LGl9iBlvxvJvZD7kwH9BABXG1rHlwrEkcSpUSoSjSR5SBIOZppjsRf0xLyqB+P+YPvR1+MPts0Z+rmB3M/XCg9xSnQBNdTzgSrh80hvJ0xmF4LXKqNUgAZQK8uceuikQcu5u4//FFg5FX7fcs3ma4Uh8jyMMDzCtHs6M8LV3J9MSG0iLFenxvMGAg0EGgg0EGgg0ECggUADgQYCDQQaCDQQaCDQQKCBwKGGwP8BP+e9o4ajmxMAAAAASUVORK5CYII=;" parent="1" vertex="1"><mxGeometry x="530" y="249" width="90" height="90" as="geometry"/></mxCell><mxCell id="57" style="edgeStyle=none;html=1;exitX=1;exitY=0.75;exitDx=0;exitDy=0;endArrow=classic;endFill=1;startArrow=classic;startFill=1;" edge="1" parent="1" source="16"><mxGeometry relative="1" as="geometry"><mxPoint x="480" y="410" as="targetPoint"/></mxGeometry></mxCell><mxCell id="16" value="" style="shape=image;verticalLabelPosition=bottom;labelBackgroundColor=#ffffff;verticalAlign=top;aspect=fixed;imageAspect=0;image=data:image/png,iVBORw0KGgoAAAANSUhEUgAAAEoAAABKCAYAAAAc0MJxAAAAAXNSR0IArs4c6QAAAIRlWElmTU0AKgAAAAgABQESAAMAAAABAAEAAAEaAAUAAAABAAAASgEbAAUAAAABAAAAUgEoAAMAAAABAAIAAIdpAAQAAAABAAAAWgAAAAAAAACQAAAAAQAAAJAAAAABAAOgAQADAAAAAQABAACgAgAEAAAAAQAAAEqgAwAEAAAAAQAAAEoAAAAALPVk3QAAAAlwSFlzAAAWJQAAFiUBSVIk8AAADWFJREFUeAHtW2tsFNcVPjOzD+/agDEGP7BxIDztBgwlIQmlEnKToqSBSlEaReofpKpEor+qRuo/UilSfqRqE6mRmraREkFrBDQkVVFJQoqUtuGlBsdAg3GIg83Dr2Awttf7mtvvu/Y6u/as7X0FO9pjfR7PzL3nnPvNvec+LZKXPAN5BvIM5BnIM5BnIM9AnoF0GDDSyZTNPEUiiwZE6qFzBVAOzANcQAS4DXQCrUjXhHTd+PuuyN0iyovSNgBPAiSJ5IALKQDcAP1SQBgYBsCRJu0srm8BHwBB4Bstm1G6t4HrAEkgIdMF098AmJ96vpHC2vJzgARFgemS45SO+a8B1Ee93xhh03oRyJSg8aRRH/VS/6yXEpTgV4ANjC9oNu6p93mAdmat+OD5LiAAOJLicrmUaZqO72J5+J7pYvcOV+qnHdrLiVg50TqilD3XA8BvgNKRR1/9tixLamtrZcuWLVJRUSGBQEAGBti5JQrfbdq0Serr68UwDLl586YoRc4ShMOJbwEngKsJb2bBDbv7w4BjTdi4caM6efIkyqzU0OCgeumll1RpaWlCWt7zOd9TmJ75kukctUe7s0q2w1sOGicUrKCgQB06dEjZtq0J4K/e3l61a9euhLS87+npGUvD9MzH/E56R+3R7qyS0/DWsUBr165VX3zxhSYgHA6rAwcOqA8//FAdPnx4jASSwfsYmaFQSKdnPuZPphvPaTfrYmZd44jCLbjcn0z3smXLxOv16tfHjh2T5577haCJyfDwsI5XfMHYtHDhQjl69Kj8bPdu2blzp7zwwgsSjUaF+ScR2qX9rAqDYC6EPVBSYVAmKKdOnZIrV9rFslxy7do1QU3Sz3ltamqSjo4OWbtunaDXk9bWVkEPqKETJf/1LF79K/nr1N/kgqg5cOPxyVxpb2+XYHBkqtbQ0CC/Rm1asqRaKisrBTFJZ+3u7paysjLZtm2bfk6iEMcETRDEXplMPd89BtCPO7yZqfI9ODZZDNFx6P3339fxh7Hn7Nmzqrm5Wb388ssJ+V555RU1ONrjMUAxXjEfmm1CuiT26MeMFo7CpyzI5s2bFcZNOkDzF4nCuCohH+/5PCZMz3zT0Y809GNGyxF4N63CrFq1Su3bt0+x5ixdutQxT01NjX6/d+9etXLlSsc0SezRj6zJSETNmjphL3oJuHcqleaoZRtF558uzBEQp7XwnoxQbMzkIpj68j4+j345+a/LeL0S4FwwY8l2MF8Ej/zJvPJiSW6uz5C5SLG80pDaakOWlZlSuQBznDkjzwuQxgJhURRvGMt2/UMivXeUXP9S5PMuW/7XoeSz60o/7w8oCXJpz1noB/3pdH6d2tNcEOU4fyxBH7RtgylPPmTJQ6tNKSniECE1Z0Eh5nkiNweUnLhoy19PROXox7bcdO7b6MeMJaoYzo02oEQSVlWasrPBJQ+uMsWTwechuQtQ+x5db8kc1M62zoicaHFsXfSD/mRFHL9+BppXIy/XwSc0v95+JR1fKt2k2ASLCw0dl6ZbqZiOJIUxe7x0zZZ/oCb98b2onL5kS8SRJ7208zdkY6zKWDL4to62qc+x7Iw3x5psOdNqy4MrTXl4jSn1Sw1ZU2VK9UJD3PhkE1dPRslBMO/oUfLpVVs+aVPyHzS7k6hFtwcdfYg9pB9ZqwjZJgpFGuuwYg4nXFm4d8/a8s9mW+6tMGQFULNoBOXzDTQnbMNYBnq6kYDd2afkCki60q2k9YaSy0CYVqYWdpTTSzm1Lr1/No1k00vy+/mV8z+JBKwL4aB8GgpKj53cTxb24lWlwSZVXIiFb78hBZ6RXo/DgkAIe1RDSm6BXKfa5uTVQtOSNR6v1Lm91jqXr+TZPu5lZC5ZrVHbC4savmv7/DdBUB9m+TeiEbkUDslnkZC0RcLSHg3LLbyLjZFi7pOEPixu9qE3m66wXRWDlCWWW5a63LLc7ZGVLo9UYHI9H6unJablx/uGZ/ukcbo6J0vnGE8my5DsXW/NijV21GhEUdcijdYbAQNDGrYEcB1WtvShqnSCsE4Q2Q0iSeptPBtQUZ0Gq056hMguy4Oq5gOKDEvmYTSKwssiEFEOIipAUDGeFRimTuPH1Y+0LlbPESHrzZalnim90vpp7GG616zVKBUxHlOGVMGRMU/p9FwibsTADiqqCnTwYN3iyJzPlP5JHEZTEWHiN4njyNzC34zQ1D1mCPcOYkB1VRR+4V3GRE1hy8G8w6PuhXVF4o0cQHG3wbms6HQwk/IjOEJ3jkrQ9aNFPRcm7lykoNFxcJhCfp3Udge3om4sn0kk0TH6Q78M+JdqmcanzwZRZqeyt962VU0Q8QXOzQihH/Sn31ZLrsE/3GZU1mzEqNonujvWr3V7PQ94fbLeUyClCLZFCK6FCLZ+BGATDudabMSsIXQMg7pjsKUXnUVTaFhOBgPec+HgetivBc6n60emRDEebeyIhtcAcmR4QAfaFW6OYzxSP7dYntn0HSnBUkC0vUPsnt50/fwqHz6CgfV0wwcU+oFCMYsKBYsL0vjRv6Wp/5acxxjuMoYk3CsblTW4bgQuAGl9tUyJ4qSTDpQBWjjEvIgBJ3GqdL489eLzGEgWyuBvX5XA/oNoAA4tAIV3LV8mBgqsu0HWQH4C1ErsKojhweTQ49HkmHPmiLGgRMyyRWKVl4mFdXZrSZV093TLa488IleHHJcS6N+3gXeAPiBlyZSoFbBIohzFi0KWY4PAQIGN4uQHTlg7/Dt/LK76dVilQz3gNydRIFBAkuHzieFH7SFJJM1ByrGI5XU7vxtNfj+uy4EzDtmnfJQJURzOcAWRbd9RvGgic1A4GZhiDoI4ZlVXiauOLSQ9KSoqwlbXyF5hEg30k/5+DCSfWyXJ7NAOkqSc+JjNrh4AExOF+3Z0nvtwU0/U0FtmGPBpp6gINQ52kwj9ZFBPa40qE6J4MDVps6Ozsc1M/v11SGz3eRJbCfF0knQTXmVCFJdZEVSSyyRf1yFT0prgkNb5ka69zq9iT+nvWMcTezida7pEcd+bgXzSahxhYP4aBQc+prJGfxnQ6X9Kki5R6MelbjJLjDlDQ9hCiQkGgorE4arBmETE38fSpnmlvWnEOh44o/8pSbq9Hg2xB4kXVh8stenjgbodDQ7cEX5lF7p27+PbxMAJFg48o13dIoPoCblh5/fpHs8sZ0tOX2gH2+/xCjjI4HFrD8AeOib0m/5zjDptSZcoVt17xll5HfergM2AHtCEUIM6Ozulurpa3Pdv0BiXJ2u3XV1d+gBHnEJ+uFNACxB/uuYe3GPBOTVJt+lxwBIfFD/B/Z+AMwAd1BIcxlTi8uXYbU6vtBM7ITNqiH7QH35A+hcT+j3pyDSWMP6aLlGsyrHxE9qR/A44BzQBY/96wQOs58/xce7lHOzQXpzQD/rTDNA/+kmh3ym3pHSJokEuTHJitRfg/hkdY1W/DWhhcD195gziNZPmTqj/9OnTiZ3HiB/0h37Rv30A/R1ZUMUfqUi6RLE7OwscBP4AxL7W5/j7BKCFh774pXlSLpdC/efPnx8fo+gH/aHQv9eAQwD9Tqh6uM+ZzIXmR4DxPR8NbgHY+7HX0UeieQQ6l+Jw9Jr26cd4ob/0m/7fdWH8YnPURGG0rHD8ULW0tOSEK+qlftqJ2Ry1Tz9mvNTAwzZAOz9v3jy1Z8+ehGOG2WCNxxapl/pjtkbt0v6skSfg6S1AFwJHnlVjY6OKnRfPlCjq2b9/v6LemI1Re7Q7q4RjrZ8CA4BuGnV1derIkSMZk0WSqIf64poc7dAe7c46KcAy0W6ch+LgT2E1QS1evFi98cYbaZNFkt58802th/qol/ppB3+nPNm964wG3/bUht7x/GXwoHfo0C/dCscP45uI2r59u2pra0upBTL9jh07EvRQL/UPHPAOhQ57/hw85KnLReEzXwSK8wqLAYYc9FWHXParHrfxAxwt0IsD3CPgyZXnG8PyLg6ADWEIyK10ytatW+Xpp5/W/46GE8BYJv+qs+K/c/DwPf5PRvD/MnL8+HGdh1vrfjQwHnXc84xbVlcZgmMNet8CRxMkFFZ/90TM3fJUoAMLnqOWdNa0f2WVqKFGX7XLq96DN6u5ghIvNBRGYY6fs+X19yLy38tKHwQbDCq9iMC0Pmwi8P9fuFLJeRv/iyE2LeGp4UKvgR0dkQ33GvKT77tk632muPERxpmKnQ29GDGNR/0/DHTE+5Hu3ynPeSY15IksVsrqR5ob+JIF+MrYY9JLHBzkGCzUo+tMabjPrS60K/VBs7I/aolGW68r+86gRAaDgUh3Z3sYFSkKYiyfR9ylCwzXnEJx4cCZ9fBqy2xYZ5h1S7CvgwBF8kdJ4gULXhJF7eWBGC6v9KNqVeGaFaKyWqPgoBl4y/cAYux9prIr0RKLwY0fWwcgzORHYeEQl+yIYZpRy1CchwW7+tXwiQv2wEct9h0cXbzddUsCFQvEv2GpOW/zarPooTqzqGyuUQD93qgyELBtC1RxAxrqQY/WZ4Qw5RtCS7tlG+Z1yzSa3TsCZ2AQ9TgveQbyDOQZyDOQZyDPQJ6BPAN3i4H/A46605iih5DBAAAAAElFTkSuQmCC;" parent="1" vertex="1"><mxGeometry x="350" y="310" width="74" height="74" as="geometry"/></mxCell><mxCell id="41" value="" style="edgeStyle=none;html=1;endArrow=none;endFill=0;startArrow=none;startFill=0;dashed=1;dashPattern=1 2;" edge="1" parent="1" source="33" target="40"><mxGeometry relative="1" as="geometry"/></mxCell><mxCell id="48" style="edgeStyle=none;html=1;exitX=0.14;exitY=0.65;exitDx=0;exitDy=0;exitPerimeter=0;entryX=0.5;entryY=0;entryDx=0;entryDy=0;endArrow=classic;endFill=1;startArrow=classic;startFill=1;" edge="1" parent="1" source="33" target="15"><mxGeometry relative="1" as="geometry"/></mxCell><mxCell id="52" style="edgeStyle=none;html=1;exitX=1;exitY=1;exitDx=0;exitDy=0;exitPerimeter=0;entryX=0;entryY=0;entryDx=0;entryDy=0;endArrow=classic;endFill=1;startArrow=classic;startFill=1;" edge="1" parent="1" source="33" target="14"><mxGeometry relative="1" as="geometry"/></mxCell><mxCell id="33" value="" style="verticalLabelPosition=bottom;html=1;verticalAlign=top;align=center;strokeColor=none;fillColor=#640000;shape=mxgraph.azure.user;" vertex="1" parent="1"><mxGeometry x="246" y="130" width="47.5" height="50" as="geometry"/></mxCell><mxCell id="43" value="" style="edgeStyle=none;html=1;endArrow=none;endFill=0;startArrow=none;startFill=0;dashed=1;dashPattern=1 2;" edge="1" parent="1" source="40" target="42"><mxGeometry relative="1" as="geometry"/></mxCell><mxCell id="54" style="edgeStyle=none;html=1;exitX=0;exitY=1;exitDx=0;exitDy=0;exitPerimeter=0;entryX=1;entryY=0;entryDx=0;entryDy=0;endArrow=classic;endFill=1;startArrow=classic;startFill=1;" edge="1" parent="1" source="40" target="14"><mxGeometry relative="1" as="geometry"/></mxCell><mxCell id="40" value="" style="verticalLabelPosition=bottom;html=1;verticalAlign=top;align=center;strokeColor=none;fillColor=#640000;shape=mxgraph.azure.user;" vertex="1" parent="1"><mxGeometry x="470" y="130" width="47.5" height="50" as="geometry"/></mxCell><mxCell id="45" value="" style="edgeStyle=none;html=1;endArrow=none;endFill=0;startArrow=none;startFill=0;dashed=1;dashPattern=1 2;" edge="1" parent="1" source="42" target="44"><mxGeometry relative="1" as="geometry"/></mxCell><mxCell id="50" style="edgeStyle=none;html=1;exitX=0.87;exitY=0.65;exitDx=0;exitDy=0;exitPerimeter=0;entryX=0.5;entryY=1;entryDx=0;entryDy=0;startArrow=classic;startFill=1;" edge="1" parent="1" source="42" target="17"><mxGeometry relative="1" as="geometry"/></mxCell><mxCell id="53" style="edgeStyle=none;html=1;exitX=0.28;exitY=0.28;exitDx=0;exitDy=0;exitPerimeter=0;entryX=1;entryY=1;entryDx=0;entryDy=0;endArrow=classic;endFill=1;startArrow=classic;startFill=1;" edge="1" parent="1" source="42" target="14"><mxGeometry relative="1" as="geometry"/></mxCell><mxCell id="42" value="" style="verticalLabelPosition=bottom;html=1;verticalAlign=top;align=center;strokeColor=none;fillColor=#640000;shape=mxgraph.azure.user;" vertex="1" parent="1"><mxGeometry x="470" y="400" width="47.5" height="50" as="geometry"/></mxCell><mxCell id="46" value="" style="edgeStyle=none;html=1;endArrow=none;endFill=0;startArrow=none;startFill=0;dashed=1;dashPattern=1 2;" edge="1" parent="1" source="44" target="33"><mxGeometry relative="1" as="geometry"/></mxCell><mxCell id="56" style="edgeStyle=none;html=1;exitX=0.84;exitY=0.28;exitDx=0;exitDy=0;exitPerimeter=0;endArrow=classic;endFill=1;startArrow=classic;startFill=1;" edge="1" parent="1" source="44" target="16"><mxGeometry relative="1" as="geometry"/></mxCell><mxCell id="44" value="" style="verticalLabelPosition=bottom;html=1;verticalAlign=top;align=center;strokeColor=none;fillColor=#640000;shape=mxgraph.azure.user;" vertex="1" parent="1"><mxGeometry x="246" y="400" width="47.5" height="50" as="geometry"/></mxCell></root></mxGraphModel></diagram></mxfile>